<svg width="30" height="13" viewBox="0 0 30 13" fill="none" xmlns="http://www.w3.org/2000/svg">
<path d="M29.2562 5.6574C29.7521 6.13888 29.7521 6.8611 29.2562 7.22221L24.0496 12.2778C23.5537 12.7592 22.8099 12.7592 22.438 12.2778C21.9421 11.7963 21.9421 11.0741 22.438 10.713L26.9008 6.37962L22.438 2.04629C21.9421 1.56481 21.9421 0.842584 22.438 0.481472C22.9339 -9.03755e-06 23.6777 -9.03755e-06 24.0496 0.481472L29.2562 5.6574Z" fill="#232642"/>
<path d="M12.3967 6.49997C12.3967 5.89812 12.8925 5.29626 13.6363 5.29626H26.7768C27.3967 5.29626 28.0165 5.77775 28.0165 6.49997C28.0165 7.10182 27.5206 7.70367 26.7768 7.70367H13.6363C12.8925 7.70367 12.3967 7.10182 12.3967 6.49997Z" fill="#232642"/>
<path d="M8.18181 7.70367H1.36363C0.743797 7.70367 0.123962 7.22219 0.123962 6.49997C0.123962 5.89812 0.61983 5.29626 1.36363 5.29626H8.05785C8.67768 5.29626 9.29752 5.77775 9.29752 6.49997C9.42148 7.22219 8.80165 7.70367 8.18181 7.70367Z" fill="#232642"/>
</svg>
