<svg width="255" height="286" viewBox="0 0 255 286" fill="none" xmlns="http://www.w3.org/2000/svg">
<path opacity="0.09" d="M127.5 285.862C197.916 285.862 255 272.654 255 256.362C255 240.07 197.916 226.862 127.5 226.862C57.0837 226.862 -1.2726e-07 240.07 -2.84243e-07 256.362C-4.41226e-07 272.654 57.0837 285.862 127.5 285.862Z" fill="#171570"/>
<path d="M164.462 221.793V247.655L95.5385 263.172L40.4 245.931L43.8461 223.517L97.2615 233.862L164.462 221.793Z" fill="#E7E6EF"/>
<path d="M44.3631 232.586C41.9508 235.517 41.7785 239.655 43.6738 242.931C44.88 245 46.7754 246.552 49.1877 247.241L80.2031 257.241C85.7169 258.965 91.7477 259.31 97.6062 258.276L168.08 244.483C169.803 244.483 169.803 251.379 162.911 253.103L101.397 267.414C93.1262 269.31 84.6831 268.793 76.7569 265.862L44.5354 253.965C39.8831 252.241 36.0923 248.793 34.0246 244.138C31.7846 238.965 32.4739 232.931 35.7477 228.448C38.8492 224.31 43.3292 221.552 48.4985 220.517L113.458 208.793C115.354 208.448 117.422 208.448 119.489 208.621L159.292 216.896C166.874 218.103 168.252 221.896 168.425 223.793C168.425 224.483 168.08 225.172 167.391 225.172L100.708 238.621C92.7815 240.172 84.6831 239.827 76.9292 237.586L51.7723 230.345C49.0154 229.483 46.0862 230.345 44.3631 232.586Z" fill="#3E328A"/>
<path d="M41.4338 223.276L46.4308 222.586C48.1538 222.414 49.8769 222.241 51.6 222.241H54.1846L124.831 210.172L120.695 209.138H120.523C117.766 208.793 114.837 208.793 111.908 209.31L50.2215 220.345L46.9477 221.034C46.2585 221.207 45.7415 221.379 45.0523 221.552L41.4338 223.276Z" fill="#6C5DDA"/>
<path d="M31.7846 191.034V211.724L85.2 227.241V203.103L31.7846 191.034Z" fill="#E7E6EF"/>
<path d="M71.76 229.655L36.0923 219.138C30.2338 217.414 28.8554 211.896 28.5107 209.483C28.5107 208.965 29.0277 208.448 29.5446 208.621L76.0677 221.552C77.4461 221.896 78.8246 221.379 79.6861 220.345C81.9261 217.241 82.0984 213.276 80.2031 210C78.9969 207.931 76.9292 206.379 74.6892 205.69L29.2 193.103C28.6831 192.931 28.3384 192.414 28.3384 191.896C28.8554 186.379 32.9907 181.896 38.5046 181.379L130.862 170.862C133.618 170.517 136.375 170.69 139.132 171.379L175.489 180.862C179.28 181.896 182.554 184.483 184.449 188.103C188.068 195.345 187.895 203.965 183.932 211.034C182.554 213.621 179.969 215.517 177.04 216.034L102.431 231.034C92.2646 233.103 81.7538 232.586 71.76 229.655Z" fill="#F57B55"/>
<path d="M85.2 232.414L86.7508 231.379C89.3354 229.655 91.5754 227.069 92.6092 224.138C95.0215 218.103 95.1938 212.759 93.4707 207.586C92.2646 204.31 90.3692 201.379 87.7846 198.793L86.9231 197.931L180.658 183.276L181.348 183.793C182.726 185 183.932 186.552 184.966 188.276L185.311 188.793C187.723 194.483 188.068 202.414 185.483 208.276L184.277 211.207C183.932 211.724 183.588 212.241 183.243 212.586C182.554 213.276 181.692 213.966 180.831 214.655L179.969 215.172L177.04 216.035L165.84 218.448L104.154 230.862L98.4677 231.897C96.5723 232.241 94.6769 232.414 92.6092 232.414H85.2Z" fill="#FF8D6E"/>
<path d="M45.5692 154.828V175.517L98.9846 191.034V166.896L45.5692 154.828Z" fill="#E7E6EF"/>
<path d="M85.5446 193.448L49.8769 182.931C44.0184 181.207 42.64 175.69 42.2954 173.276C42.2954 172.759 42.8123 172.241 43.3292 172.414L89.8523 185.345C91.2307 185.69 92.6092 185.172 93.4707 184.138C95.7107 181.034 95.883 177.069 93.9877 173.793C92.7815 171.724 90.7138 170.172 88.4738 169.483L42.9846 156.896C42.4677 156.724 42.123 156.207 42.123 155.69C42.64 150.172 46.7754 145.69 52.2892 145.172L144.646 134.655C147.403 134.31 150.16 134.483 152.917 135.172L189.274 144.655C193.065 145.69 196.338 148.276 198.234 151.896C201.852 159.138 201.68 167.759 197.717 174.827C196.338 177.414 193.754 179.31 190.825 179.827L116.215 194.827C106.049 196.896 95.5384 196.379 85.5446 193.448Z" fill="#F46556"/>
<path d="M98.9846 196.207L100.535 195.172C103.12 193.448 105.36 190.862 106.394 187.931C108.806 181.896 108.978 176.552 107.255 171.379C106.049 168.103 104.154 165.172 101.569 162.586L100.708 161.724L194.443 147.069L195.132 147.586C196.511 148.793 197.717 150.345 198.751 152.069L199.095 152.586C201.508 158.276 201.852 166.207 199.268 172.069L198.062 175C197.717 175.517 197.372 176.034 197.028 176.379C196.338 177.069 195.477 177.758 194.615 178.448L193.754 178.965L190.825 179.827L179.625 182.241L117.938 194.655L112.252 195.69C110.357 196.034 108.462 196.207 106.394 196.207H98.9846Z" fill="#FF766C"/>
<path d="M148.954 163.448L209.262 151.379L226.492 158.276L152.4 173.793L147.231 165.172L148.954 163.448Z" fill="#E7E6EF"/>
<path d="M150.505 160.345L208.228 150.172C211.158 149.655 212.708 150.862 214.604 151.379L153.607 162.931C151.884 163.276 150.505 164.483 149.988 166.207C149.644 167.414 150.505 168.793 151.712 168.965C154.296 169.31 156.881 169.138 159.465 168.621L225.976 156.724C226.493 156.724 226.838 156.724 227.355 157.069C228.733 158.276 231.835 161.379 231.662 166.034L231.835 247.586C231.835 250.862 229.595 253.793 226.493 254.655L171.182 270.862C164.807 272.759 157.915 272.241 151.712 269.483C151.712 269.483 142.235 265.172 142.235 260.172V175.517C142.235 175.517 142.235 168.448 142.924 166.552C143.441 165 144.475 163.621 145.681 162.586C146.715 161.552 148.438 160.517 150.505 160.345Z" fill="#336A89"/>
<path d="M142.062 170.345L142.751 171.034C145.335 173.621 148.609 175 152.228 175.172C154.812 175.172 157.397 174.827 159.465 174.31C160.498 173.965 161.188 173.793 161.188 173.793V266.896C157.742 266.896 154.468 266.034 151.366 264.655H151.194C147.575 262.759 144.474 260.172 142.234 256.724V170.345H142.062Z" fill="#448399"/>
<path d="M171.354 120.345V146.207L102.431 161.724L47.2923 144.483L50.7385 122.069L104.154 132.414L171.354 120.345Z" fill="#E7E6EF"/>
<path d="M51.2554 129.138C48.8431 132.069 48.6707 136.207 50.5661 139.483C51.7723 141.552 53.6677 143.103 56.08 143.793L87.0954 153.793C92.6092 155.517 98.64 155.862 104.498 154.828L174.8 141.034C176.523 141.034 176.523 147.931 169.631 149.655L108.117 163.965C99.8461 165.862 91.4031 165.345 83.4769 162.414L51.2554 150.517C46.6031 148.793 42.8123 145.345 40.7446 140.69C38.5046 135.517 39.1938 129.483 42.4677 125C45.5692 120.862 50.0492 118.103 55.2184 117.069L120.178 105.345C122.074 105 124.142 105 126.209 105.172L166.185 113.448C173.766 114.655 175.145 118.448 175.317 120.345C175.317 121.034 174.972 121.724 174.283 121.724L107.6 135.172C99.6738 136.724 91.5754 136.379 83.8215 134.138L58.6646 126.897C55.9077 126.034 52.9784 126.897 51.2554 129.138Z" fill="#336A89"/>
<path d="M48.3261 119.828L53.3231 119.138C55.0461 118.966 56.7692 118.793 58.4923 118.793H61.0769L131.723 106.724L127.588 105.69H127.415C124.658 105.345 121.729 105.345 118.8 105.862L57.1138 116.897L53.84 117.586C53.1508 117.759 52.6338 117.931 51.9446 118.103L48.3261 119.828Z" fill="#448399"/>
<path d="M167.908 84.1379V110L98.9846 125.517L43.8462 108.276L47.2923 85.8621L100.708 96.2069L167.908 84.1379Z" fill="#E7E6EF"/>
<path d="M47.8093 92.931C45.3969 95.862 45.2246 100 47.12 103.276C48.3262 105.345 50.2216 106.897 52.6339 107.586L83.6493 117.586C89.1631 119.31 95.1939 119.655 101.052 118.621L171.354 104.828C173.077 104.828 173.077 111.724 166.185 113.448L104.671 127.759C96.4 129.655 87.9569 129.138 80.0308 126.207L47.8093 114.31C43.1569 112.586 39.3662 109.138 37.2985 104.483C35.0585 99.3103 35.7477 93.2758 39.0216 88.7931C42.1231 84.6551 46.6031 81.8965 51.7723 80.862L116.732 69.1379C118.628 68.7931 120.695 68.7931 122.763 68.9655L162.738 77.2413C170.32 78.4482 171.698 82.2413 171.871 84.1379C171.871 84.8276 171.526 85.5172 170.837 85.5172L104.154 98.9655C96.2277 100.517 88.1293 100.172 80.3754 97.931L55.2185 90.6896C52.4616 89.8275 49.5323 90.6896 47.8093 92.931Z" fill="#2C5C6D"/>
<path d="M44.88 83.6207L49.877 82.931C51.6 82.7586 53.3231 82.5862 55.0462 82.5862H57.6308L128.277 70.5172L124.142 69.4828H123.969C121.212 69.1379 118.283 69.1379 115.354 69.6552L53.6677 80.6897L50.3939 81.3793C49.7046 81.5517 49.1877 81.7241 48.4985 81.8966L44.88 83.6207Z" fill="#38727F"/>
<path d="M38.6769 53.1034V73.7931L92.0923 89.3103V65.1724L38.6769 53.1034Z" fill="#E7E6EF"/>
<path d="M78.6523 91.7241L42.9846 81.2069C37.1262 79.4827 35.7477 73.9655 35.4031 71.5517C35.4031 71.0345 35.92 70.5172 36.4369 70.6896L82.96 83.6207C84.3385 83.9655 85.7169 83.4483 86.5785 82.4138C88.8185 79.3103 88.9908 75.3448 87.0954 72.069C85.8892 70 83.8215 68.4483 81.5815 67.7586L36.0923 55.1724C35.5754 55 35.2308 54.4827 35.2308 53.9655C35.7477 48.4483 39.8831 43.9655 45.3969 43.4483L137.754 32.931C140.511 32.5862 143.268 32.7586 146.025 33.4483L182.382 42.931C186.172 43.9655 189.446 46.5517 191.342 50.1724C194.96 57.4138 194.788 66.0345 190.825 73.1034C189.446 75.6896 186.862 77.5862 183.932 78.1034L109.323 93.1034C99.1569 95.1724 88.6462 94.6552 78.6523 91.7241Z" fill="#F57B55"/>
<path d="M92.0923 94.4827L93.6431 93.4482C96.2277 91.7241 98.4677 89.1379 99.5015 86.2069C101.914 80.1724 102.086 74.8275 100.363 69.6551C99.1569 66.3793 97.2615 63.4482 94.6769 60.862L93.8154 60L187.551 45.3448L188.24 45.862C189.618 47.0689 190.825 48.6207 191.858 50.3448L192.203 50.862C194.615 56.5517 194.96 64.4827 192.375 70.3448L191.169 73.2758C190.825 73.7931 190.48 74.3103 190.135 74.6551C189.446 75.3448 188.585 76.0344 187.723 76.7241L186.862 77.2413L183.932 78.1034L172.732 80.5172L111.046 92.931L105.36 93.9655C103.465 94.3103 101.569 94.4827 99.5015 94.4827H92.0923Z" fill="#FF8D6E"/>
<path d="M42.1231 20.3448V41.0345L95.5385 56.5517V32.4138L42.1231 20.3448Z" fill="#E7E6EF"/>
<path d="M82.0985 58.9655L46.4308 48.4483C40.5723 46.7241 39.1939 41.2069 38.8492 38.7931C38.8492 38.2759 39.3662 37.7586 39.8831 37.931L86.4062 50.8621C87.7846 51.2069 89.1631 50.6897 90.0246 49.6552C92.2646 46.5517 92.4369 42.5862 90.5415 39.3103C89.3354 37.2414 87.2677 35.6897 85.0277 35L39.5385 22.4138C39.0216 22.2414 38.6769 21.7241 38.6769 21.2069C39.1939 15.6897 43.3292 11.2069 48.8431 10.6897L141.2 0.172414C143.957 -0.172414 146.714 2.38419e-07 149.471 0.689655L185.828 10.1724C189.618 11.2069 192.892 13.7931 194.788 17.4138C198.406 24.6552 198.234 33.2759 194.271 40.3448C192.892 42.931 190.308 44.8276 187.378 45.3448L112.769 60.3448C102.603 62.4138 92.0923 61.8966 82.0985 58.9655Z" fill="#3E65DD"/>
<path d="M95.5385 61.7241L97.0893 60.6896C99.6739 58.9655 101.914 56.3793 102.948 53.4482C105.36 47.4138 105.532 42.0689 103.809 36.8965C102.603 33.6207 100.708 30.6896 98.1231 28.1034L97.2616 27.2414L190.997 12.5862L191.686 13.1034C193.065 14.3103 194.271 15.862 195.305 17.5862L195.649 18.1034C198.062 23.7931 198.406 31.7241 195.822 37.5862L194.615 40.5172C194.271 41.0345 193.926 41.5517 193.582 41.8965C192.892 42.5862 192.031 43.2758 191.169 43.9655L190.308 44.4827L187.378 45.3448L176.178 47.7586L114.492 60.1724L108.806 61.2069C106.911 61.5517 105.015 61.7241 102.948 61.7241H95.5385Z" fill="#5775F2"/>
</svg>
