<svg width="226" height="55" viewBox="0 0 226 55" fill="none" xmlns="http://www.w3.org/2000/svg">
<g clip-path="url(#clip0)">
<path d="M56.3214 19.1623C55.1899 18.5451 53.544 17.7222 52.4125 17.2078C52.3096 17.105 52.4125 17.2078 52.824 16.8992C53.7498 16.4878 54.6756 15.9734 55.6014 15.6648C56.0129 15.562 56.0129 15.0476 55.6014 14.8419C55.3957 14.739 55.0871 14.8419 54.9842 14.8419C53.7498 14.8419 52.5154 14.5333 51.281 14.5333C50.0465 12.8874 48.7093 11.3444 47.2691 10.4186C46.0697 9.72421 43.9794 8.79739 41.6874 8.89806C40.2445 8.96143 38.7217 9.43205 37.291 10.6243C36.6738 11.1386 36.2623 11.653 35.748 12.1673C34.3078 14.1218 32.8677 16.1791 31.1189 17.9279C28.1358 20.911 22.8896 22.5569 19.0835 20.6025C10.957 16.4878 9.82542 7.64115 7.87094 11.653C6.4308 14.6361 6.63652 20.6025 7.76807 23.6885C12.6028 35.9297 22.6838 45.805 39.3483 41.3817C44.1831 40.1473 47.9892 34.6953 49.6351 31.7121C50.5609 29.9634 51.0752 28.0089 51.3838 26.0544C52.001 23.0713 51.5896 22.7627 51.8982 18.9566C54.6756 19.7795 54.1613 19.5738 55.6014 19.8824C55.6014 19.8824 55.6014 19.8824 55.7043 19.8824C56.4243 20.2938 56.9387 19.4709 56.3214 19.1623Z" fill="#232642"/>
<path d="M36.0565 41.2788C36.4679 42.719 36.1593 44.3648 36.1593 45.9078C36.1593 47.2451 36.5708 48.891 36.2622 50.2283C36.1593 50.5369 35.8507 50.5369 35.645 50.3311C34.8221 49.1996 35.1307 47.2451 35.1307 45.9078C35.1307 44.4677 34.9249 42.719 35.4392 41.2788C35.5421 40.9702 35.9536 40.9702 36.0565 41.2788Z" fill="#232642"/>
<path d="M29.6788 44.0563C29.7817 45.085 29.9874 46.1136 30.0903 47.1423C30.0903 47.5538 29.4731 47.7595 29.2674 47.3481C28.8559 46.5251 28.8559 45.4965 28.8559 44.4678C28.8559 43.2334 28.753 41.999 28.8559 40.7645C28.8559 40.4559 29.3702 40.3531 29.4731 40.6617C29.6788 41.7932 29.576 43.0276 29.6788 44.0563Z" fill="#232642"/>
<path d="M33.3905 5.60242C33.2343 5.60242 33.0702 5.58679 32.8983 5.55554C32.7264 5.50867 32.5546 5.48523 32.3827 5.48523C31.5077 5.48523 30.8124 5.72742 30.2968 6.21179C29.7968 6.69617 29.3905 7.29773 29.078 8.01648C28.7655 8.73523 28.5155 9.52429 28.328 10.3837C28.1405 11.2274 27.9296 12.0087 27.6952 12.7274C27.4764 13.4462 27.1952 14.0477 26.8514 14.5321C26.5077 15.0165 26.0233 15.2587 25.3983 15.2587C24.9764 15.2587 24.6249 15.1884 24.3436 15.0477C24.0624 14.9071 23.8358 14.7274 23.6639 14.5087C23.5077 14.2899 23.3983 14.0477 23.3358 13.7821C23.2733 13.5165 23.2421 13.2587 23.2421 13.0087C23.2421 12.3993 23.3593 11.7587 23.5936 11.0868C23.8436 10.3993 24.1796 9.73523 24.6014 9.0946C25.0233 8.43835 25.5155 7.82117 26.078 7.24304C26.6561 6.64929 27.2811 6.13367 27.953 5.69617C28.6249 5.24304 29.328 4.88367 30.0624 4.61804C30.8124 4.35242 31.5624 4.2196 32.3124 4.2196C32.4999 4.2196 32.6952 4.22742 32.8983 4.24304C33.1014 4.25867 33.2889 4.28992 33.4608 4.33679C33.6483 4.38367 33.7968 4.46179 33.9061 4.57117C34.0155 4.66492 34.0702 4.79773 34.0702 4.9696C34.0702 5.11023 34.0155 5.25085 33.9061 5.39148C33.7968 5.5321 33.6249 5.60242 33.3905 5.60242ZM26.2186 5.60242C25.4374 5.60242 24.7889 5.74304 24.2733 6.02429C23.7577 6.28992 23.3358 6.6571 23.0077 7.12585C22.6796 7.57898 22.4139 8.0946 22.2108 8.67273C22.0233 9.25085 21.8593 9.8446 21.7186 10.454C21.5936 11.0477 21.4608 11.6337 21.3202 12.2118C21.1952 12.7899 21.0311 13.3134 20.828 13.7821C20.6405 14.2352 20.3905 14.6024 20.078 14.8837C19.7655 15.1493 19.3514 15.2821 18.8358 15.2821C18.4452 15.2821 18.1171 15.2118 17.8514 15.0712C17.6014 14.9305 17.3983 14.7509 17.2421 14.5321C17.1014 14.2977 16.9999 14.0477 16.9374 13.7821C16.8749 13.5165 16.8436 13.2587 16.8436 13.0087C16.8436 12.3993 16.9608 11.7587 17.1952 11.0868C17.4452 10.3993 17.7811 9.73523 18.203 9.0946C18.6249 8.43835 19.1249 7.82117 19.703 7.24304C20.2811 6.64929 20.9061 6.13367 21.578 5.69617C22.2499 5.24304 22.953 4.88367 23.6874 4.61804C24.4374 4.35242 25.1874 4.2196 25.9374 4.2196C26.2968 4.2196 26.5624 4.26648 26.7343 4.36023C26.9061 4.43835 26.9921 4.64929 26.9921 4.99304C26.9921 5.13367 26.9218 5.27429 26.7811 5.41492C26.6405 5.53992 26.453 5.60242 26.2186 5.60242Z" fill="#232642"/>
<path d="M43.6093 44.6493C43.7655 44.6493 43.9296 44.6649 44.1014 44.6962C44.2733 44.743 44.4452 44.7665 44.6171 44.7665C45.4921 44.7665 46.1874 44.5243 46.703 44.0399C47.203 43.5555 47.6093 42.954 47.9218 42.2352C48.2343 41.5165 48.4843 40.7274 48.6718 39.868C48.8593 39.0243 49.0702 38.243 49.3046 37.5243C49.5233 36.8055 49.8046 36.204 50.1483 35.7196C50.4921 35.2352 50.9764 34.993 51.6014 34.993C52.0233 34.993 52.3749 35.0634 52.6561 35.204C52.9374 35.3446 53.1639 35.5243 53.3358 35.743C53.4921 35.9618 53.6014 36.204 53.6639 36.4696C53.7264 36.7352 53.7577 36.993 53.7577 37.243C53.7577 37.8524 53.6405 38.493 53.4061 39.1649C53.1561 39.8524 52.8202 40.5165 52.3983 41.1571C51.9764 41.8134 51.4843 42.4305 50.9218 43.0087C50.3436 43.6024 49.7186 44.118 49.0468 44.5555C48.3749 45.0087 47.6718 45.368 46.9374 45.6337C46.1874 45.8993 45.4374 46.0321 44.6874 46.0321C44.4999 46.0321 44.3046 46.0243 44.1014 46.0087C43.8983 45.993 43.7108 45.9618 43.5389 45.9149C43.3514 45.868 43.203 45.7899 43.0936 45.6805C42.9843 45.5868 42.9296 45.454 42.9296 45.2821C42.9296 45.1415 42.9843 45.0009 43.0936 44.8602C43.203 44.7196 43.3749 44.6493 43.6093 44.6493ZM50.7811 44.6493C51.5624 44.6493 52.2108 44.5087 52.7264 44.2274C53.2421 43.9618 53.6639 43.5946 53.9921 43.1259C54.3202 42.6727 54.5858 42.1571 54.7889 41.579C54.9764 41.0009 55.1405 40.4071 55.2811 39.7977C55.4061 39.204 55.5389 38.618 55.6796 38.0399C55.8046 37.4618 55.9686 36.9384 56.1718 36.4696C56.3593 36.0165 56.6093 35.6493 56.9218 35.368C57.2343 35.1024 57.6483 34.9696 58.1639 34.9696C58.5546 34.9696 58.8827 35.0399 59.1483 35.1805C59.3983 35.3212 59.6014 35.5009 59.7577 35.7196C59.8983 35.954 59.9999 36.204 60.0624 36.4696C60.1249 36.7352 60.1561 36.993 60.1561 37.243C60.1561 37.8524 60.0389 38.493 59.8046 39.1649C59.5546 39.8524 59.2186 40.5165 58.7968 41.1571C58.3749 41.8134 57.8749 42.4305 57.2968 43.0087C56.7186 43.6024 56.0936 44.118 55.4218 44.5555C54.7499 45.0087 54.0468 45.368 53.3124 45.6337C52.5624 45.8993 51.8124 46.0321 51.0624 46.0321C50.703 46.0321 50.4374 45.9852 50.2655 45.8915C50.0936 45.8134 50.0077 45.6024 50.0077 45.2587C50.0077 45.118 50.078 44.9774 50.2186 44.8368C50.3593 44.7118 50.5468 44.6493 50.7811 44.6493Z" fill="#232642"/>
<path d="M77.94 9.71997C73.98 9.71997 71.28 12.12 71.28 16.44V24H75.18V20.9H80.64V24H84.6V16.44C84.6 12.12 81.9 9.71997 77.94 9.71997ZM75.18 17.84V16.1C75.18 13.98 76.3 13 77.92 13C79.52 13 80.64 13.98 80.64 16.1V17.84H75.18Z" fill="#232642"/>
<path d="M93.6789 9.99997H87.2789V24H91.2389V20.34H93.6789C97.4989 20.34 99.8989 18.36 99.8989 15.18C99.8989 11.98 97.4989 9.99997 93.6789 9.99997ZM93.4389 17.22H91.2389V13.12H93.4389C95.0789 13.12 95.8989 13.88 95.8989 15.18C95.8989 16.46 95.0789 17.22 93.4389 17.22Z" fill="#232642"/>
<path d="M108.233 9.71997C104.273 9.71997 101.573 12.12 101.573 16.44V24H105.473V20.9H110.933V24H114.893V16.44C114.893 12.12 112.193 9.71997 108.233 9.71997ZM105.473 17.84V16.1C105.473 13.98 106.593 13 108.213 13C109.813 13 110.933 13.98 110.933 16.1V17.84H105.473Z" fill="#232642"/>
<path d="M124.552 24.28C127.132 24.28 129.212 23.34 130.572 21.64L128.052 19.36C127.172 20.42 126.092 21 124.752 21C122.452 21 120.852 19.4 120.852 17C120.852 14.6 122.452 13 124.752 13C126.092 13 127.172 13.58 128.052 14.64L130.572 12.36C129.212 10.66 127.132 9.71997 124.552 9.71997C120.112 9.71997 116.852 12.74 116.852 17C116.852 21.26 120.112 24.28 124.552 24.28Z" fill="#232642"/>
<path d="M140.178 13.06V9.99997H131.678V13.06H133.958V20.94H131.678V24H140.178V20.94H137.918V13.06H140.178Z" fill="#232642"/>
<path d="M154.398 11.52C152.438 10.32 149.998 9.71997 147.518 9.71997C145.038 9.71997 142.618 10.32 140.638 11.52L141.958 14.4C143.078 13.76 144.258 13.32 145.538 13.1V24H149.498V13.1C150.778 13.32 151.938 13.76 153.078 14.4L154.398 11.52Z" fill="#232642"/>
<path d="M161.866 9.71997C157.906 9.71997 155.206 12.12 155.206 16.44V24H159.106V20.9H164.566V24H168.526V16.44C168.526 12.12 165.826 9.71997 161.866 9.71997ZM159.106 17.84V16.1C159.106 13.98 160.226 13 161.846 13C163.446 13 164.566 13.98 164.566 16.1V17.84H159.106Z" fill="#232642"/>
<path d="M183.089 11.52C181.129 10.32 178.689 9.71997 176.209 9.71997C173.729 9.71997 171.309 10.32 169.329 11.52L170.649 14.4C171.769 13.76 172.949 13.32 174.229 13.1V24H178.189V13.1C179.469 13.32 180.629 13.76 181.769 14.4L183.089 11.52Z" fill="#232642"/>
<path d="M192.053 13.06V9.99997H183.553V13.06H185.833V20.94H183.553V24H192.053V20.94H189.793V13.06H192.053Z" fill="#232642"/>
<path d="M201.155 24.28C205.635 24.28 208.935 21.2 208.935 17C208.935 12.8 205.635 9.71997 201.155 9.71997C196.675 9.71997 193.375 12.8 193.375 17C193.375 21.2 196.675 24.28 201.155 24.28ZM201.155 21C199.035 21 197.375 19.42 197.375 17C197.375 14.58 199.035 13 201.155 13C203.275 13 204.935 14.58 204.935 17C204.935 19.42 203.275 21 201.155 21Z" fill="#232642"/>
<path d="M218.969 9.71997C217.169 9.71997 215.789 10.36 214.849 11.6V9.99997H211.009V24H214.969V16.16C214.969 13.98 216.149 13 217.729 13C219.269 13 220.269 13.94 220.269 15.96V24H224.229V15.84C224.229 11.9 222.269 9.71997 218.969 9.71997Z" fill="#232642"/>
<path d="M78.7801 47.28C78.1001 47.82 77.2001 48.08 76.2801 48.08C74.3401 48.08 72.6801 46.82 72.6801 44.12C72.6801 41.58 74.2801 40 76.6801 40C78.0201 40 79.1201 40.5 80.0801 41.56L82.6001 39.28C81.2201 37.62 79.1001 36.72 76.4801 36.72C71.9401 36.72 68.6801 39.74 68.6801 44.14C68.6801 48.76 71.9201 51.28 75.7801 51.28C77.2601 51.28 78.5401 50.94 79.5401 50.14V51H82.2801V43.7H78.7801V47.28Z" fill="#232642"/>
<path d="M95.6307 47.02C94.4307 47.74 92.6707 48.18 91.1707 48.18C88.9507 48.18 88.0507 47.6 88.0507 46.74C88.0507 45.9 88.7507 45.44 90.1107 45.44H94.3307V42.42H90.3707C89.1507 42.42 88.6307 41.98 88.6307 41.22C88.6307 40.38 89.4907 39.82 91.4507 39.82C92.7107 39.82 93.9707 40.06 95.2907 40.64L96.3707 37.68C95.0307 37.1 93.1707 36.72 91.2907 36.72C86.7107 36.72 84.6307 38.72 84.6307 40.96C84.6307 42.14 85.2107 43.2 86.3107 43.78C84.8907 44.38 84.0507 45.56 84.0507 47.02C84.0507 49.5 86.4107 51.28 91.0107 51.28C93.2307 51.28 95.4107 50.76 96.8307 49.94L95.6307 47.02Z" fill="#232642"/>
<path d="M106.364 36.72C104.564 36.72 103.184 37.36 102.244 38.6V37H98.404V51H102.364V43.16C102.364 40.98 103.544 40 105.124 40C106.664 40 107.664 40.94 107.664 42.96V51H111.624V42.84C111.624 38.9 109.664 36.72 106.364 36.72Z" fill="#232642"/>
<path d="M125.142 47.02C123.942 47.74 122.182 48.18 120.682 48.18C118.462 48.18 117.562 47.6 117.562 46.74C117.562 45.9 118.262 45.44 119.622 45.44H123.842V42.42H119.882C118.662 42.42 118.142 41.98 118.142 41.22C118.142 40.38 119.002 39.82 120.962 39.82C122.222 39.82 123.482 40.06 124.802 40.64L125.882 37.68C124.542 37.1 122.682 36.72 120.802 36.72C116.222 36.72 114.142 38.72 114.142 40.96C114.142 42.14 114.722 43.2 115.822 43.78C114.402 44.38 113.562 45.56 113.562 47.02C113.562 49.5 115.922 51.28 120.522 51.28C122.742 51.28 124.922 50.76 126.342 49.94L125.142 47.02Z" fill="#232642"/>
<path d="M136.576 51H140.816L137.796 46.6C139.536 45.76 140.536 44.24 140.536 42.18C140.536 38.98 138.136 37 134.316 37H127.916V51H131.876V47.28H134.036L136.576 51ZM136.536 42.18C136.536 43.46 135.716 44.22 134.076 44.22H131.876V40.12H134.076C135.716 40.12 136.536 40.88 136.536 42.18Z" fill="#232642"/>
<path d="M149.26 36.72C145.3 36.72 142.6 39.12 142.6 43.44V51H146.5V47.9H151.96V51H155.92V43.44C155.92 39.12 153.22 36.72 149.26 36.72ZM146.5 44.84V43.1C146.5 40.98 147.62 40 149.24 40C150.84 40 151.96 40.98 151.96 43.1V44.84H146.5Z" fill="#232642"/>
<path d="M170.484 38.52C168.524 37.32 166.084 36.72 163.604 36.72C161.124 36.72 158.704 37.32 156.724 38.52L158.044 41.4C159.164 40.76 160.344 40.32 161.624 40.1V51H165.584V40.1C166.864 40.32 168.024 40.76 169.164 41.4L170.484 38.52Z" fill="#232642"/>
<path d="M178.472 51.28C182.952 51.28 186.252 48.2 186.252 44C186.252 39.8 182.952 36.72 178.472 36.72C173.992 36.72 170.692 39.8 170.692 44C170.692 48.2 173.992 51.28 178.472 51.28ZM178.472 48C176.352 48 174.692 46.42 174.692 44C174.692 41.58 176.352 40 178.472 40C180.592 40 182.252 41.58 182.252 44C182.252 46.42 180.592 48 178.472 48Z" fill="#232642"/>
<path d="M196.986 51H201.226L198.206 46.6C199.946 45.76 200.946 44.24 200.946 42.18C200.946 38.98 198.546 37 194.726 37H188.326V51H192.286V47.28H194.446L196.986 51ZM196.946 42.18C196.946 43.46 196.126 44.22 194.486 44.22H192.286V40.12H194.486C196.126 40.12 196.946 40.88 196.946 42.18Z" fill="#232642"/>
</g>
<defs>
<clipPath id="clip0">
<rect width="225.042" height="54.3597" fill="white" transform="translate(0.958252 0.374146)"/>
</clipPath>
</defs>
</svg>
