<svg width="403" height="278" viewBox="0 0 403 278" fill="none" xmlns="http://www.w3.org/2000/svg">
<path d="M32.2 35.3C33.6 37.5 34.3 40.1 34.3 43.1C34.3 47.4 33 50.9 30.3 53.5C27.6 56.2 24.2 57.5 19.9 57.5C15.7 57.5 12.2 56.1 9.49999 53.4C6.69999 50.7 5.39999 47.3 5.39999 43C5.39999 41 5.59999 39 6.19999 37C6.69999 35 7.79999 32 9.49999 28L18.2 6.39999H33L26.4 30.2C28.8 31.4 30.8 33.1 32.2 35.3ZM67.6 35.3C69 37.5 69.7 40.1 69.7 43.1C69.7 47.4 68.3 50.9 65.6 53.5C62.9 56.2 59.5 57.5 55.2 57.5C51 57.5 47.5 56.1 44.8 53.4C42 50.7 40.7 47.3 40.7 43C40.7 41 40.9 39 41.5 37C42 35 43.1 32 44.8 28L53.5 6.39999H68.4L61.8 30.2C64.2 31.4 66.2 33.1 67.6 35.3Z" fill="#232642"/>
<path d="M135.7 19.5C132.7 17.8 129.5 16.7 126 16.2V44.2H117.9V16.2C114.4 16.7 111.2 17.8 108.2 19.5L105.4 13.6C110.2 10.8 116 9.30002 121.9 9.30002C127.8 9.30002 133.6 10.7 138.4 13.6L135.7 19.5Z" fill="#232642"/>
<path d="M169 29.1V44.2H161.2V30.3C161.2 26 159.2 24.1 155.7 24.1C151.9 24.1 149.2 26.4 149.2 31.2V44.2H141.4V7.89999H149.2V20.6C151.3 18.5 154.3 17.5 157.8 17.5C164.2 17.5 169 21.1 169 29.1Z" fill="#232642"/>
<path d="M196.7 35.9L200.9 40.3C198.4 43.1 194.6 44.6 189.8 44.6C180.5 44.6 174.4 38.9 174.4 31C174.4 23.1 180.5 17.4 188.8 17.4C196.4 17.4 202.7 22.3 202.7 30.7L182.8 34.5C183.9 37.1 186.4 38.4 190 38.4C192.8 38.5 194.8 37.7 196.7 35.9ZM182 30.3L195.1 27.8C194.3 25.1 192 23.3 188.7 23.3C184.8 23.2 182.1 25.8 182 30.3Z" fill="#232642"/>
<path d="M219.4 41.8L222 36.3C224.4 37.8 228 38.8 231.4 38.8C235 38.8 236.4 37.9 236.4 36.4C236.4 32.1 220.1 36.5 220.1 26C220.1 21 224.7 17.5 232.6 17.5C236.3 17.5 240.4 18.3 243 19.8L240.4 25.2C237.7 23.7 235.1 23.2 232.6 23.2C229.1 23.2 227.6 24.3 227.6 25.6C227.6 30.1 243.9 25.7 243.9 36.1C243.9 41 239.2 44.5 231.2 44.5C226.5 44.6 221.9 43.4 219.4 41.8Z" fill="#232642"/>
<path d="M264.8 42.9C263.2 44 260.8 44.6 258.5 44.6C252.1 44.6 248.4 41.4 248.4 35.1V12H256.2V18.4H262.9V24.3H256.2V35C256.2 37.3 257.4 38.5 259.5 38.5C260.7 38.5 261.8 38.2 262.7 37.5L264.8 42.9Z" fill="#232642"/>
<path d="M295.7 17.9V44.3H288.2V41.3C286.2 43.6 283.4 44.7 279.8 44.7C272.2 44.7 266.3 39.4 266.3 31.1C266.3 22.8 272.2 17.5 279.8 17.5C283.1 17.5 285.9 18.5 287.9 20.7V17.9H295.7ZM288 31C288 26.4 285 23.7 281.2 23.7C277.3 23.7 274.3 26.4 274.3 31C274.3 35.6 277.3 38.3 281.2 38.3C285 38.3 288 35.6 288 31Z" fill="#232642"/>
<path d="M319.5 17.5V24.6C318.9 24.6 318.4 24.5 317.7 24.5C313.4 24.5 310.5 26.8 310.5 31.8V44.2H302.7V17.9H310.2V21.4C312.2 18.8 315.4 17.5 319.5 17.5Z" fill="#232642"/>
<path d="M340.4 42.9C338.8 44 336.4 44.6 334.1 44.6C327.7 44.6 324 41.4 324 35.1V12H331.8V18.4H338.5V24.3H331.8V35C331.8 37.3 333 38.5 335.1 38.5C336.3 38.5 337.4 38.2 338.3 37.5L340.4 42.9Z" fill="#232642"/>
<path d="M358 9.90001C358 7.50001 360 5.60001 362.8 5.60001C365.7 5.60001 367.7 7.40001 367.7 9.70001C367.7 12.2 365.7 14.1 362.8 14.1C359.9 14.2 358 12.3 358 9.90001ZM358.9 17.9H366.7V44.3H358.9V17.9Z" fill="#232642"/>
<path d="M371.4 41.8L374 36.3C376.4 37.8 380 38.8 383.4 38.8C387 38.8 388.4 37.9 388.4 36.4C388.4 32.1 372.1 36.5 372.1 26C372.1 21 376.7 17.5 384.6 17.5C388.3 17.5 392.4 18.3 395 19.8L392.4 25.2C389.7 23.7 387.1 23.2 384.6 23.2C381.1 23.2 379.6 24.3 379.6 25.6C379.6 30.1 395.9 25.7 395.9 36.1C395.9 41 391.2 44.5 383.2 44.5C378.5 44.6 373.9 43.4 371.4 41.8Z" fill="#232642"/>
<path d="M152.2 90.9V105.5C152.2 113.2 147.7 117.7 139.7 117.7C136 117.7 132.9 116.7 130.8 114C128.7 116.6 125.8 117.7 121.9 117.7C113.8 117.7 109.4 113.2 109.4 105.5V90.9H117.2V104.9C117.2 109.3 118.7 111.3 122 111.3C125.3 111.3 126.9 109.3 126.9 104.9V90.9H134.7V104.9C134.7 109.3 136.3 111.3 139.6 111.3C142.9 111.3 144.4 109.3 144.4 104.9V90.9H152.2Z" fill="#232642"/>
<path d="M186.7 102.1V117.2H178.9V103.3C178.9 99 176.9 97.1 173.4 97.1C169.6 97.1 166.9 99.4 166.9 104.2V117.2H159.1V80.9H166.9V93.6C169 91.5 172 90.5 175.5 90.5C181.9 90.5 186.7 94.1 186.7 102.1Z" fill="#232642"/>
<path d="M221.3 90.9V117.3H213.8V114.3C211.8 116.6 209 117.7 205.4 117.7C197.8 117.7 191.9 112.4 191.9 104.1C191.9 95.8 197.7 90.5 205.4 90.5C208.7 90.5 211.5 91.5 213.5 93.7V90.9H221.3ZM213.7 104C213.7 99.4 210.7 96.7 206.9 96.7C203 96.7 200 99.4 200 104C200 108.6 203 111.3 206.9 111.3C210.7 111.3 213.7 108.6 213.7 104Z" fill="#232642"/>
<path d="M256 102.1V117.2H248.2V103.3C248.2 99 246.2 97.1 242.7 97.1C238.9 97.1 236.2 99.4 236.2 104.2V117.2H228.4V90.9H235.9V94C238 91.7 241.2 90.5 244.8 90.5C251.2 90.5 256 94.1 256 102.1Z" fill="#232642"/>
<path d="M279.2 115.9C277.6 117 275.2 117.6 272.9 117.6C266.5 117.6 262.8 114.4 262.8 108.1V85H270.6V91.4H277.3V97.3H270.6V108C270.6 110.3 271.8 111.5 273.9 111.5C275.1 111.5 276.2 111.2 277.1 110.5L279.2 115.9Z" fill="#232642"/>
<path d="M107 187.8L109.6 182.3C112 183.8 115.6 184.8 119 184.8C122.6 184.8 124 183.9 124 182.4C124 178.1 107.7 182.5 107.7 172C107.7 167 112.3 163.5 120.2 163.5C123.9 163.5 128 164.3 130.6 165.8L128 171.2C125.3 169.7 122.7 169.2 120.2 169.2C116.7 169.2 115.2 170.3 115.2 171.7C115.2 176.2 131.5 171.8 131.5 182.2C131.5 187.1 126.8 190.6 118.8 190.6C114.1 190.6 109.5 189.4 107 187.8Z" fill="#232642"/>
<path d="M152.4 188.9C150.8 190 148.4 190.6 146.1 190.6C139.7 190.6 136 187.4 136 181.1V158H143.8V164.4H150.5V170.3H143.8V181C143.8 183.3 145 184.5 147.1 184.5C148.3 184.5 149.4 184.2 150.3 183.5L152.4 188.9Z" fill="#232642"/>
<path d="M153.9 177C153.9 169.1 160.2 163.4 168.7 163.4C177.2 163.4 183.5 169 183.5 177C183.5 185 177.3 190.6 168.7 190.6C160.2 190.6 153.9 185 153.9 177ZM175.6 177C175.6 172.4 172.6 169.7 168.8 169.7C164.9 169.7 161.9 172.4 161.9 177C161.9 181.6 164.9 184.3 168.8 184.3C172.6 184.3 175.6 181.6 175.6 177Z" fill="#232642"/>
<path d="M218 177C218 185.3 212.1 190.6 204.6 190.6C201.3 190.6 198.5 189.6 196.5 187.4V199.7H188.7V163.8H196.2V166.8C198.2 164.5 201.1 163.4 204.7 163.4C212.1 163.5 218 168.8 218 177ZM210.1 177C210.1 172.4 207.1 169.7 203.2 169.7C199.3 169.7 196.3 172.4 196.3 177C196.3 181.6 199.3 184.3 203.2 184.3C207.1 184.3 210.1 181.6 210.1 177Z" fill="#232642"/>
<path d="M220.5 187.8L223.1 182.3C225.5 183.8 229.1 184.8 232.5 184.8C236.1 184.8 237.5 183.9 237.5 182.4C237.5 178.1 221.2 182.5 221.2 172C221.2 167 225.8 163.5 233.7 163.5C237.4 163.5 241.5 164.3 244.1 165.8L241.5 171.2C238.8 169.7 236.2 169.2 233.7 169.2C230.2 169.2 228.7 170.3 228.7 171.7C228.7 176.2 245 171.8 245 182.2C245 187.1 240.3 190.6 232.3 190.6C227.6 190.6 223 189.4 220.5 187.8Z" fill="#232642"/>
<path d="M309.3 175.1V190.2H301.5V176.3C301.5 172 299.5 170.1 296.4 170.1C292.9 170.1 290.4 172.3 290.4 177V190.2H282.6V176.3C282.6 172 280.7 170.1 277.5 170.1C274 170.1 271.6 172.3 271.6 177V190.2H263.8V163.8H271.3V166.8C273.3 164.5 276.3 163.4 279.8 163.4C283.6 163.4 286.8 164.8 288.7 167.7C290.9 165 294.4 163.4 298.4 163.4C304.7 163.5 309.3 167.1 309.3 175.1Z" fill="#232642"/>
<path d="M314.6 177C314.6 169.1 320.9 163.4 329.4 163.4C337.9 163.4 344.2 169 344.2 177C344.2 185 338 190.6 329.4 190.6C320.8 190.6 314.6 185 314.6 177ZM336.2 177C336.2 172.4 333.2 169.7 329.4 169.7C325.5 169.7 322.5 172.4 322.5 177C322.5 181.6 325.5 184.3 329.4 184.3C333.3 184.3 336.2 181.6 336.2 177Z" fill="#232642"/>
<path d="M346.7 187.8L349.3 182.3C351.7 183.8 355.3 184.8 358.7 184.8C362.3 184.8 363.7 183.9 363.7 182.4C363.7 178.1 347.4 182.5 347.4 172C347.4 167 352 163.5 359.9 163.5C363.6 163.5 367.7 164.3 370.3 165.8L367.7 171.2C365 169.7 362.4 169.2 359.9 169.2C356.4 169.2 354.9 170.3 354.9 171.7C354.9 176.2 371.2 171.8 371.2 182.2C371.2 187.1 366.5 190.6 358.5 190.6C353.8 190.6 349.2 189.4 346.7 187.8Z" fill="#232642"/>
<path d="M392.1 188.9C390.5 190 388.1 190.6 385.8 190.6C379.4 190.6 375.7 187.4 375.7 181.1V158H383.5V164.4H390.2V170.3H383.5V181C383.5 183.3 384.7 184.5 386.8 184.5C388 184.5 389.1 184.2 390 183.5L392.1 188.9Z" fill="#232642"/>
<path d="M138.9 250C138.9 258.3 133 263.6 125.5 263.6C122.2 263.6 119.4 262.6 117.4 260.4V272.7H109.6V236.8H117.1V239.8C119.1 237.5 122 236.4 125.6 236.4C133.1 236.5 138.9 241.8 138.9 250ZM131 250C131 245.4 128 242.7 124.1 242.7C120.2 242.7 117.2 245.4 117.2 250C117.2 254.6 120.2 257.3 124.1 257.3C128 257.3 131 254.6 131 250Z" fill="#232642"/>
<path d="M164.4 254.9L168.6 259.3C166.1 262.1 162.3 263.6 157.5 263.6C148.2 263.6 142.1 257.9 142.1 250C142.1 242.1 148.2 236.4 156.5 236.4C164.1 236.4 170.4 241.3 170.4 249.7L150.5 253.5C151.6 256.1 154.1 257.4 157.7 257.4C160.5 257.5 162.6 256.7 164.4 254.9ZM149.8 249.3L162.9 246.8C162.1 244.1 159.8 242.3 156.5 242.3C152.6 242.2 149.9 244.8 149.8 249.3Z" fill="#232642"/>
<path d="M173.6 250C173.6 242.1 179.9 236.4 188.4 236.4C196.9 236.4 203.2 242 203.2 250C203.2 258 197 263.6 188.4 263.6C179.9 263.6 173.6 258 173.6 250ZM195.3 250C195.3 245.4 192.3 242.7 188.5 242.7C184.6 242.7 181.6 245.4 181.6 250C181.6 254.6 184.6 257.3 188.5 257.3C192.3 257.3 195.3 254.6 195.3 250Z" fill="#232642"/>
<path d="M237.7 250C237.7 258.3 231.8 263.6 224.3 263.6C221 263.6 218.2 262.6 216.2 260.4V272.7H208.4V236.8H215.9V239.8C217.9 237.5 220.8 236.4 224.4 236.4C231.9 236.5 237.7 241.8 237.7 250ZM229.8 250C229.8 245.4 226.8 242.7 222.9 242.7C219 242.7 216 245.4 216 250C216 254.6 219 257.3 222.9 257.3C226.8 257.3 229.8 254.6 229.8 250Z" fill="#232642"/>
<path d="M242.9 254.5V226.9H250.7V254.1C250.7 256.4 251.9 257.6 254.1 257.6C254.9 257.6 255.9 257.4 256.3 257.1L256.6 263C255.3 263.4 253.9 263.6 252.6 263.6C246.5 263.6 242.9 260.4 242.9 254.5Z" fill="#232642"/>
<path d="M280.2 254.9L284.4 259.3C281.9 262.1 278.1 263.6 273.3 263.6C264 263.6 257.9 257.9 257.9 250C257.9 242.1 264 236.4 272.3 236.4C279.9 236.4 286.2 241.3 286.2 249.7L266.3 253.5C267.4 256.1 269.9 257.4 273.5 257.4C276.3 257.5 278.4 256.7 280.2 254.9ZM265.6 249.3L278.7 246.8C277.9 244.1 275.6 242.3 272.3 242.3C268.4 242.2 265.7 244.8 265.6 249.3Z" fill="#232642"/>
</svg>
